<?xml version="1.0" standalone="no"?>
<!DOCTYPE svg PUBLIC "-//W3C//DTD SVG 20010904//EN"
 "http://www.w3.org/TR/2001/REC-SVG-20010904/DTD/svg10.dtd">
<svg version="1.0" xmlns="http://www.w3.org/2000/svg"
 width="775.000000pt" height="679.000000pt" viewBox="0 0 775.000000 679.000000"
 preserveAspectRatio="xMidYMid meet">

<g transform="translate(0.000000,679.000000) scale(0.100000,-0.100000)"
fill="#000000" stroke="none">
<path d="M3710 5529 c-224 -25 -474 -111 -665 -229 -290 -178 -530 -467 -639
-770 -58 -160 -77 -264 -83 -446 -7 -225 13 -368 78 -546 l21 -56 59 -4 c58
-3 59 -3 59 24 0 31 9 58 20 58 4 0 10 -18 14 -40 6 -36 9 -40 36 -40 35 0 35
0 16 100 l-15 75 45 52 c64 75 359 323 384 323 3 0 22 -33 43 -73 51 -100 192
-332 249 -412 l48 -65 61 0 c45 0 58 3 53 13 -4 6 -29 41 -55 77 -100 139
-319 513 -308 525 12 11 252 152 354 207 420 229 927 417 1275 473 52 8 142
15 200 15 89 0 113 -4 155 -24 44 -20 55 -33 94 -101 55 -95 106 -228 134
-349 17 -75 21 -124 22 -281 0 -212 -10 -281 -69 -454 l-34 -99 55 -4 c65 -4
67 -2 107 136 216 745 -172 1510 -917 1810 -237 95 -535 135 -797 105z m-65
-140 c-241 -89 -400 -193 -599 -391 l-149 -149 7 68 c14 149 36 184 168 270
121 78 227 129 358 171 188 60 360 85 215 31z m660 -11 c169 -45 352 -134 500
-243 63 -46 236 -213 243 -234 1 -4 -59 -11 -135 -14 -197 -8 -414 -56 -705
-156 -116 -40 -247 -90 -303 -116 -16 -7 -82 -36 -145 -65 -155 -69 -377 -186
-538 -283 -73 -43 -135 -78 -137 -75 -26 26 -126 322 -156 458 l-21 101 28 42
c16 23 85 98 154 167 261 262 549 402 910 444 70 8 227 -5 305 -26z m-1503
-550 c5 -115 4 -125 -17 -158 -145 -230 -245 -582 -245 -865 0 -65 -4 -81 -27
-116 -32 -48 -35 -45 -60 71 -14 66 -18 128 -18 275 1 171 3 200 27 295 44
177 102 310 192 444 52 78 128 175 137 176 3 0 9 -55 11 -122z m53 -304 c29
-109 74 -238 115 -329 17 -37 29 -69 28 -70 -49 -30 -255 -192 -311 -245 -43
-40 -81 -70 -84 -66 -12 11 17 260 41 361 14 55 38 137 55 181 33 92 120 269
127 261 3 -2 16 -44 29 -93z"/>
<path d="M5363 3282 c-79 -26 -136 -71 -166 -133 -54 -108 -25 -241 69 -313
23 -18 93 -55 154 -81 122 -53 160 -86 160 -139 0 -44 -22 -71 -75 -92 -57
-21 -152 -14 -260 20 l-75 24 0 -78 c0 -57 4 -83 15 -94 25 -25 122 -39 240
-34 93 4 119 8 170 32 113 51 164 124 165 231 0 79 -15 128 -51 169 -29 34
-137 94 -239 135 -97 38 -135 90 -110 152 28 66 109 83 240 50 46 -11 84 -20
85 -18 7 9 55 140 53 142 -2 1 -25 10 -53 20 -74 26 -254 30 -322 7z"/>
<path d="M2196 2953 c-66 -186 -139 -393 -162 -461 l-44 -123 102 3 102 3 32
105 31 105 176 3 175 2 6 -27 c4 -16 18 -65 32 -110 l25 -83 99 0 c55 0 100 2
100 4 0 2 -66 190 -146 418 -80 227 -153 432 -161 456 l-15 42 -117 0 -116 0
-119 -337z m299 2 c31 -99 58 -186 60 -192 3 -10 -25 -13 -121 -13 -116 0
-126 1 -121 18 18 63 109 360 113 372 4 8 8 11 10 5 2 -5 28 -91 59 -190z"/>
<path d="M2760 3210 l0 -80 125 0 125 0 0 -380 0 -380 95 0 95 0 0 380 0 380
125 0 125 0 0 80 0 80 -345 0 -345 0 0 -80z"/>
<path d="M3580 2830 l0 -460 280 0 280 0 0 75 0 75 -187 2 -188 3 -3 383 -2
382 -90 0 -90 0 0 -460z"/>
<path d="M4367 2848 c-86 -244 -159 -451 -163 -461 -6 -16 1 -18 96 -15 l103
3 31 105 32 105 174 0 174 0 32 -105 31 -105 103 -3 c88 -2 102 -1 97 12 -3 8
-77 216 -163 461 l-157 445 -117 0 -117 0 -156 -442z m393 -85 c0 -10 -31 -13
-120 -13 -66 0 -120 2 -120 5 0 10 112 379 117 389 5 8 122 -356 123 -381z"/>
<path d="M4445 2233 c-9 -43 -18 -83 -20 -89 -2 -8 -18 -8 -56 2 -123 32 -232
-52 -260 -199 -26 -145 67 -223 190 -159 51 27 50 27 44 2 -4 -17 0 -20 23
-20 l29 0 48 213 c27 116 54 238 62 270 l13 57 -28 0 c-27 0 -29 -3 -45 -77z
m-45 -149 c9 -9 -10 -118 -36 -207 -12 -38 -133 -73 -171 -49 -38 24 -39 122
-2 195 29 57 71 79 142 74 31 -2 62 -8 67 -13z"/>
<path d="M5120 2218 c-17 -66 -18 -68 -39 -68 -17 0 -31 -18 -31 -41 0 -5 9
-9 20 -9 11 0 20 -2 20 -4 0 -2 -11 -52 -25 -110 -27 -115 -31 -157 -15 -186
13 -24 68 -40 119 -33 31 4 40 10 44 29 4 23 1 24 -42 24 -79 0 -85 22 -48
180 l22 95 65 3 c62 3 80 12 80 40 0 8 -20 12 -66 12 l-66 0 6 26 c20 80 20
84 -7 84 -22 0 -28 -6 -37 -42z"/>
<path d="M2145 2145 c-62 -16 -126 -82 -143 -147 -34 -129 -5 -208 83 -228
102 -23 208 44 239 151 49 164 -29 263 -179 224z m115 -72 c43 -54 10 -195
-54 -234 -34 -21 -96 -25 -126 -9 -57 30 -46 162 19 230 34 36 43 40 89 40 43
0 54 -4 72 -27z"/>
<path d="M2653 2150 c-18 -4 -44 -15 -57 -24 -33 -21 -39 -20 -33 4 4 17 0 20
-24 20 -16 0 -29 -1 -29 -3 0 -6 -110 -481 -116 -499 -4 -14 1 -18 24 -18 28
0 29 3 47 80 15 66 21 80 34 74 120 -50 239 9 287 143 15 45 18 131 4 167 -17
45 -78 70 -137 56z m71 -72 c40 -56 1 -203 -63 -241 -35 -20 -119 -23 -146 -3
-18 13 -17 16 5 112 25 109 31 121 75 140 50 22 111 18 129 -8z"/>
<path d="M3090 2150 c-105 -20 -180 -116 -183 -234 -1 -96 51 -146 156 -149
80 -2 144 20 152 50 8 34 4 36 -38 18 -20 -8 -64 -15 -97 -15 -51 0 -65 4 -85
24 -26 26 -40 67 -31 91 4 12 30 15 144 15 l140 0 6 31 c24 121 -45 193 -164
169z m92 -57 c18 -22 29 -60 21 -79 -7 -19 -223 -21 -223 -1 0 21 30 57 64 78
41 25 117 26 138 2z"/>
<path d="M3580 2151 c-14 -5 -40 -15 -57 -24 -41 -22 -46 -21 -40 3 4 17 0 20
-23 20 -28 0 -28 -1 -60 -137 -18 -76 -38 -162 -45 -190 l-13 -53 28 0 c28 0
29 1 62 142 l34 143 39 22 c56 32 119 31 141 -2 15 -23 15 -32 -10 -142 -15
-65 -29 -128 -32 -140 -6 -20 -3 -23 23 -23 l29 0 33 153 c32 146 33 154 17
184 -11 23 -27 35 -54 42 -41 12 -38 12 -72 2z"/>
<path d="M4740 2154 c-14 -3 -39 -7 -56 -9 -24 -4 -33 -12 -36 -29 l-5 -25 89
6 c76 5 91 3 108 -12 11 -10 20 -28 20 -41 0 -25 -5 -26 -120 -39 -113 -13
-180 -66 -180 -145 0 -46 22 -77 65 -89 38 -10 107 1 142 25 29 18 33 18 33
-6 0 -15 7 -20 25 -20 27 0 28 1 70 187 27 122 25 150 -17 176 -25 16 -98 27
-138 21z m100 -189 c0 -2 -5 -26 -11 -54 -9 -45 -15 -52 -53 -70 -50 -24 -128
-28 -145 -7 -7 8 -11 29 -9 47 3 37 37 67 89 79 37 9 129 13 129 5z"/>
<path d="M5500 2154 c-14 -3 -39 -7 -56 -9 -24 -4 -33 -12 -36 -29 l-5 -25 89
6 c76 5 91 3 108 -12 11 -10 20 -28 20 -41 0 -25 -5 -26 -120 -39 -113 -13
-180 -66 -180 -145 0 -46 22 -77 65 -89 38 -10 107 1 142 25 29 18 33 18 33
-6 0 -15 7 -20 25 -20 27 0 28 1 70 187 27 122 25 150 -17 176 -25 16 -98 27
-138 21z m100 -189 c0 -2 -5 -26 -11 -54 -9 -45 -15 -52 -53 -70 -50 -24 -128
-28 -145 -7 -7 8 -11 29 -9 47 3 37 37 67 89 79 37 9 129 13 129 5z"/>
</g>
</svg>
